<svg width="51" height="22" viewBox="0 0 51 22" fill="none" xmlns="http://www.w3.org/2000/svg">
<g filter="url(#filter0_d_297080_7248)">
<mask id="path-1-outside-1_297080_7248" maskUnits="userSpaceOnUse" x="2" y="-0.5" width="46" height="15" fill="black">
<rect fill="white" x="2" y="-0.5" width="46" height="15"/>
<path d="M9.706 0.756H12.01L13.468 4.986L14.944 0.756H17.23L15.034 6.57L16.654 10.638L20.272 0.719999H22.972L17.86 13.5H15.718L13.468 8.136L11.236 13.5H9.094L4 0.719999H6.664L10.3 10.638L11.884 6.57L9.706 0.756ZM33.6952 11.322V13.5H24.8212V0.719999H33.5332V2.898H27.3052V5.976H32.6872V7.992H27.3052V11.322H33.6952ZM46.4678 10.206C46.4678 10.926 46.2818 11.532 45.9098 12.024C45.5378 12.504 45.0338 12.87 44.3978 13.122C43.7738 13.374 43.0898 13.5 42.3458 13.5H36.1718V0.719999H43.0118C43.6118 0.719999 44.1278 0.881999 44.5598 1.206C45.0038 1.518 45.3398 1.926 45.5678 2.43C45.8078 2.922 45.9278 3.438 45.9278 3.978C45.9278 4.59 45.7718 5.172 45.4598 5.724C45.1478 6.276 44.6918 6.684 44.0918 6.948C44.8238 7.164 45.3998 7.554 45.8198 8.118C46.2518 8.682 46.4678 9.378 46.4678 10.206ZM43.9658 9.738C43.9658 9.414 43.8998 9.126 43.7678 8.874C43.6358 8.61 43.4558 8.406 43.2278 8.262C43.0118 8.106 42.7598 8.028 42.4718 8.028H38.6558V11.394H42.3458C42.6458 11.394 42.9158 11.322 43.1558 11.178C43.4078 11.022 43.6058 10.818 43.7498 10.566C43.8938 10.314 43.9658 10.038 43.9658 9.738ZM38.6558 2.844V6.066H41.9678C42.2438 6.066 42.4958 6 42.7238 5.868C42.9518 5.736 43.1318 5.55 43.2638 5.31C43.4078 5.07 43.4798 4.782 43.4798 4.446C43.4798 4.122 43.4138 3.84 43.2818 3.6C43.1618 3.36 42.9938 3.174 42.7778 3.042C42.5738 2.91 42.3398 2.844 42.0758 2.844H38.6558Z"/>
</mask>
<path d="M9.706 0.756H12.01L13.468 4.986L14.944 0.756H17.23L15.034 6.57L16.654 10.638L20.272 0.719999H22.972L17.86 13.5H15.718L13.468 8.136L11.236 13.5H9.094L4 0.719999H6.664L10.3 10.638L11.884 6.57L9.706 0.756ZM33.6952 11.322V13.5H24.8212V0.719999H33.5332V2.898H27.3052V5.976H32.6872V7.992H27.3052V11.322H33.6952ZM46.4678 10.206C46.4678 10.926 46.2818 11.532 45.9098 12.024C45.5378 12.504 45.0338 12.87 44.3978 13.122C43.7738 13.374 43.0898 13.5 42.3458 13.5H36.1718V0.719999H43.0118C43.6118 0.719999 44.1278 0.881999 44.5598 1.206C45.0038 1.518 45.3398 1.926 45.5678 2.43C45.8078 2.922 45.9278 3.438 45.9278 3.978C45.9278 4.59 45.7718 5.172 45.4598 5.724C45.1478 6.276 44.6918 6.684 44.0918 6.948C44.8238 7.164 45.3998 7.554 45.8198 8.118C46.2518 8.682 46.4678 9.378 46.4678 10.206ZM43.9658 9.738C43.9658 9.414 43.8998 9.126 43.7678 8.874C43.6358 8.61 43.4558 8.406 43.2278 8.262C43.0118 8.106 42.7598 8.028 42.4718 8.028H38.6558V11.394H42.3458C42.6458 11.394 42.9158 11.322 43.1558 11.178C43.4078 11.022 43.6058 10.818 43.7498 10.566C43.8938 10.314 43.9658 10.038 43.9658 9.738ZM38.6558 2.844V6.066H41.9678C42.2438 6.066 42.4958 6 42.7238 5.868C42.9518 5.736 43.1318 5.55 43.2638 5.31C43.4078 5.07 43.4798 4.782 43.4798 4.446C43.4798 4.122 43.4138 3.84 43.2818 3.6C43.1618 3.36 42.9938 3.174 42.7778 3.042C42.5738 2.91 42.3398 2.844 42.0758 2.844H38.6558Z" fill="#4D5AE5"/>
<path d="M9.706 0.756V-0.244H8.26352L8.76955 1.10681L9.706 0.756ZM12.01 0.756L12.9554 0.430133L12.7231 -0.244H12.01V0.756ZM13.468 4.986L12.5226 5.31187L13.4622 8.03792L14.4122 5.31546L13.468 4.986ZM14.944 0.756V-0.244H14.2338L13.9998 0.426544L14.944 0.756ZM17.23 0.756L18.1655 1.10934L18.6767 -0.244H17.23V0.756ZM15.034 6.57L14.0985 6.21666L13.9614 6.57957L14.105 6.93997L15.034 6.57ZM16.654 10.638L15.725 11.008L16.695 13.4437L17.5934 10.9807L16.654 10.638ZM20.272 0.719999V-0.280001H19.5723L19.3326 0.377298L20.272 0.719999ZM22.972 0.719999L23.9005 1.09139L24.449 -0.280001H22.972V0.719999ZM17.86 13.5V14.5H18.537L18.7885 13.8714L17.86 13.5ZM15.718 13.5L14.7958 13.8868L15.0531 14.5H15.718V13.5ZM13.468 8.136L14.3902 7.74919L13.4643 5.54193L12.5447 7.75182L13.468 8.136ZM11.236 13.5V14.5H11.903L12.1593 13.8842L11.236 13.5ZM9.094 13.5L8.16507 13.8703L8.41608 14.5H9.094V13.5ZM4 0.719999V-0.280001H2.5249L3.07107 1.09026L4 0.719999ZM6.664 0.719999L7.60289 0.375795L7.36248 -0.280001H6.664V0.719999ZM10.3 10.638L9.36111 10.9822L10.2718 13.4664L11.2319 11.0008L10.3 10.638ZM11.884 6.57L12.8159 6.93284L12.9544 6.5769L12.8204 6.21919L11.884 6.57ZM9.706 1.756H12.01V-0.244H9.706V1.756ZM11.0646 1.08187L12.5226 5.31187L14.4134 4.66013L12.9554 0.430133L11.0646 1.08187ZM14.4122 5.31546L15.8882 1.08546L13.9998 0.426544L12.5238 4.65654L14.4122 5.31546ZM14.944 1.756H17.23V-0.244H14.944V1.756ZM16.2945 0.402656L14.0985 6.21666L15.9695 6.92334L18.1655 1.10934L16.2945 0.402656ZM14.105 6.93997L15.725 11.008L17.583 10.268L15.963 6.20003L14.105 6.93997ZM17.5934 10.9807L21.2114 1.0627L19.3326 0.377298L15.7146 10.2953L17.5934 10.9807ZM20.272 1.72H22.972V-0.280001H20.272V1.72ZM22.0435 0.348609L16.9315 13.1286L18.7885 13.8714L23.9005 1.09139L22.0435 0.348609ZM17.86 12.5H15.718V14.5H17.86V12.5ZM16.6402 13.1132L14.3902 7.74919L12.5458 8.52281L14.7958 13.8868L16.6402 13.1132ZM12.5447 7.75182L10.3127 13.1158L12.1593 13.8842L14.3913 8.52017L12.5447 7.75182ZM11.236 12.5H9.094V14.5H11.236V12.5ZM10.0229 13.1297L4.92893 0.349737L3.07107 1.09026L8.16507 13.8703L10.0229 13.1297ZM4 1.72H6.664V-0.280001H4V1.72ZM5.72511 1.0642L9.36111 10.9822L11.2389 10.2938L7.60289 0.375795L5.72511 1.0642ZM11.2319 11.0008L12.8159 6.93284L10.9522 6.20716L9.36815 10.2752L11.2319 11.0008ZM12.8204 6.21919L10.6424 0.405194L8.76955 1.10681L10.9476 6.9208L12.8204 6.21919ZM33.6952 11.322H34.6952V10.322H33.6952V11.322ZM33.6952 13.5V14.5H34.6952V13.5H33.6952ZM24.8212 13.5H23.8212V14.5H24.8212V13.5ZM24.8212 0.719999V-0.280001H23.8212V0.719999H24.8212ZM33.5332 0.719999H34.5332V-0.280001H33.5332V0.719999ZM33.5332 2.898V3.898H34.5332V2.898H33.5332ZM27.3052 2.898V1.898H26.3052V2.898H27.3052ZM27.3052 5.976H26.3052V6.976H27.3052V5.976ZM32.6872 5.976H33.6872V4.976H32.6872V5.976ZM32.6872 7.992V8.992H33.6872V7.992H32.6872ZM27.3052 7.992V6.992H26.3052V7.992H27.3052ZM27.3052 11.322H26.3052V12.322H27.3052V11.322ZM32.6952 11.322V13.5H34.6952V11.322H32.6952ZM33.6952 12.5H24.8212V14.5H33.6952V12.5ZM25.8212 13.5V0.719999H23.8212V13.5H25.8212ZM24.8212 1.72H33.5332V-0.280001H24.8212V1.72ZM32.5332 0.719999V2.898H34.5332V0.719999H32.5332ZM33.5332 1.898H27.3052V3.898H33.5332V1.898ZM26.3052 2.898V5.976H28.3052V2.898H26.3052ZM27.3052 6.976H32.6872V4.976H27.3052V6.976ZM31.6872 5.976V7.992H33.6872V5.976H31.6872ZM32.6872 6.992H27.3052V8.992H32.6872V6.992ZM26.3052 7.992V11.322H28.3052V7.992H26.3052ZM27.3052 12.322H33.6952V10.322H27.3052V12.322ZM45.9098 12.024L46.7002 12.6366L46.7074 12.6271L45.9098 12.024ZM44.3978 13.122L44.0294 12.1923L44.0233 12.1948L44.3978 13.122ZM36.1718 13.5H35.1718V14.5H36.1718V13.5ZM36.1718 0.719999V-0.280001H35.1718V0.719999H36.1718ZM44.5598 1.206L43.9598 2.006L43.9722 2.01529L43.9848 2.02419L44.5598 1.206ZM45.5678 2.43L44.6567 2.84217L44.6626 2.85539L44.669 2.86842L45.5678 2.43ZM44.0918 6.948L43.689 6.03268L41.1871 7.13352L43.8087 7.90711L44.0918 6.948ZM45.8198 8.118L45.0177 8.71532L45.0259 8.72608L45.8198 8.118ZM43.7678 8.874L42.8733 9.32121L42.8776 9.32965L42.8819 9.33801L43.7678 8.874ZM43.2278 8.262L42.6423 9.07268L42.6675 9.09088L42.6938 9.10749L43.2278 8.262ZM38.6558 8.028V7.028H37.6558V8.028H38.6558ZM38.6558 11.394H37.6558V12.394H38.6558V11.394ZM43.1558 11.178L43.6703 12.0356L43.6821 12.0283L43.1558 11.178ZM43.7498 10.566L44.618 11.0621V11.0621L43.7498 10.566ZM38.6558 2.844V1.844H37.6558V2.844H38.6558ZM38.6558 6.066H37.6558V7.066H38.6558V6.066ZM43.2638 5.31L42.4063 4.7955L42.3966 4.81162L42.3876 4.82808L43.2638 5.31ZM43.2818 3.6L42.3873 4.04721L42.3961 4.06474L42.4056 4.08192L43.2818 3.6ZM42.7778 3.042L42.2345 3.88157L42.2453 3.88857L42.2563 3.89528L42.7778 3.042ZM45.4678 10.206C45.4678 10.7461 45.3317 11.1305 45.1121 11.4209L46.7074 12.6271C47.2318 11.9335 47.4678 11.1059 47.4678 10.206H45.4678ZM45.1194 11.4114C44.8705 11.7326 44.5204 11.9978 44.0294 12.1923L44.7661 14.0517C45.5471 13.7422 46.2051 13.2754 46.7002 12.6366L45.1194 11.4114ZM44.0233 12.1948C43.5303 12.3939 42.975 12.5 42.3458 12.5V14.5C43.2045 14.5 44.0173 14.3541 44.7722 14.0492L44.0233 12.1948ZM42.3458 12.5H36.1718V14.5H42.3458V12.5ZM37.1718 13.5V0.719999H35.1718V13.5H37.1718ZM36.1718 1.72H43.0118V-0.280001H36.1718V1.72ZM43.0118 1.72C43.4207 1.72 43.7201 1.82622 43.9598 2.006L45.1598 0.405999C44.5355 -0.0622253 43.8028 -0.280001 43.0118 -0.280001V1.72ZM43.9848 2.02419C44.2795 2.23128 44.5009 2.49782 44.6567 2.84217L46.4789 2.01783C46.1786 1.35418 45.728 0.804722 45.1347 0.387808L43.9848 2.02419ZM44.669 2.86842C44.8433 3.22581 44.9278 3.59208 44.9278 3.978H46.9278C46.9278 3.28392 46.7722 2.61819 46.4665 1.99158L44.669 2.86842ZM44.9278 3.978C44.9278 4.4112 44.8195 4.82442 44.5892 5.23194L46.3303 6.21606C46.724 5.51958 46.9278 4.7688 46.9278 3.978H44.9278ZM44.5892 5.23194C44.3872 5.58937 44.0987 5.85244 43.689 6.03268L44.4945 7.86331C45.2849 7.51556 45.9084 6.96263 46.3303 6.21606L44.5892 5.23194ZM43.8087 7.90711C44.3519 8.06739 44.7382 8.33994 45.0177 8.71527L46.6218 7.52073C46.0613 6.76806 45.2956 6.26061 44.3748 5.98888L43.8087 7.90711ZM45.0259 8.72608C45.3029 9.08772 45.4678 9.55999 45.4678 10.206H47.4678C47.4678 9.19601 47.2006 8.27628 46.6136 7.50992L45.0259 8.72608ZM44.9658 9.738C44.9658 9.27503 44.8704 8.82397 44.6536 8.40999L42.8819 9.33801C42.9291 9.42803 42.9658 9.55297 42.9658 9.738H44.9658ZM44.6622 8.42679C44.4566 8.01557 44.1584 7.667 43.7618 7.41651L42.6938 9.10749C42.7532 9.14499 42.8149 9.20443 42.8733 9.32121L44.6622 8.42679ZM43.8133 7.45132C43.4128 7.16213 42.952 7.028 42.4718 7.028V9.028C42.5675 9.028 42.6107 9.04987 42.6423 9.07268L43.8133 7.45132ZM42.4718 7.028H38.6558V9.028H42.4718V7.028ZM37.6558 8.028V11.394H39.6558V8.028H37.6558ZM38.6558 12.394H42.3458V10.394H38.6558V12.394ZM42.3458 12.394C42.8135 12.394 43.2636 12.2795 43.6703 12.0355L42.6413 10.3205C42.5679 10.3645 42.478 10.394 42.3458 10.394V12.394ZM43.6821 12.0283C44.0727 11.7865 44.3895 11.462 44.618 11.0621L42.8815 10.0699C42.822 10.174 42.7428 10.2575 42.6294 10.3277L43.6821 12.0283ZM44.618 11.0621C44.8513 10.6538 44.9658 10.2059 44.9658 9.738H42.9658C42.9658 9.87008 42.9362 9.97417 42.8815 10.0699L44.618 11.0621ZM37.6558 2.844V6.066H39.6558V2.844H37.6558ZM38.6558 7.066H41.9678V5.066H38.6558V7.066ZM41.9678 7.066C42.411 7.066 42.8372 6.95785 43.2248 6.73343L42.2227 5.00257C42.1544 5.04215 42.0765 5.066 41.9678 5.066V7.066ZM43.2248 6.73343C43.6169 6.50643 43.9238 6.18491 44.14 5.79192L42.3876 4.82808C42.3397 4.91509 42.2866 4.96557 42.2227 5.00257L43.2248 6.73343ZM44.1213 5.8245C44.3756 5.40051 44.4798 4.92675 44.4798 4.446H42.4798C42.4798 4.63725 42.4399 4.73949 42.4063 4.7955L44.1213 5.8245ZM44.4798 4.446C44.4798 3.98436 44.3849 3.53059 44.158 3.11808L42.4056 4.08192C42.4427 4.14941 42.4798 4.25964 42.4798 4.446H44.4798ZM44.1762 3.15279C43.9776 2.75567 43.6849 2.4244 43.2992 2.18872L42.2563 3.89528C42.3027 3.9236 42.3459 3.96433 42.3873 4.04721L44.1762 3.15279ZM43.321 2.20243C42.9412 1.95666 42.5152 1.844 42.0758 1.844V3.844C42.1644 3.844 42.2063 3.86334 42.2345 3.88157L43.321 2.20243ZM42.0758 1.844H38.6558V3.844H42.0758V1.844Z" fill="black" mask="url(#path-1-outside-1_297080_7248)"/>
</g>
<defs>
<filter id="filter0_d_297080_7248" x="0" y="0.719971" width="50.4678" height="20.78" filterUnits="userSpaceOnUse" color-interpolation-filters="sRGB">
<feFlood flood-opacity="0" result="BackgroundImageFix"/>
<feColorMatrix in="SourceAlpha" type="matrix" values="0 0 0 0 0 0 0 0 0 0 0 0 0 0 0 0 0 0 127 0" result="hardAlpha"/>
<feOffset dy="4"/>
<feGaussianBlur stdDeviation="2"/>
<feComposite in2="hardAlpha" operator="out"/>
<feColorMatrix type="matrix" values="0 0 0 0 0 0 0 0 0 0 0 0 0 0 0 0 0 0 0.25 0"/>
<feBlend mode="normal" in2="BackgroundImageFix" result="effect1_dropShadow_297080_7248"/>
<feBlend mode="normal" in="SourceGraphic" in2="effect1_dropShadow_297080_7248" result="shape"/>
</filter>
</defs>
</svg>
